# xmcd CD database file
#
# Track frame offsets:
#	150
#	16745
#	29152
#	46678
#	64591
#	78671
#	93749
#	105724
#	117516
#	136933
#	151097
#	165194
#
# Disc length: 2351 seconds
#
# Revision: 0
# Processed by: cddbd v1.4PL0 Copyright (c) Steve Scherf et al.
# Submitted via: CDex 1.40Beta8
#
DISCID=8f092d0c
DTITLE=Banda Arueira - A Sombra Da Arueira
DYEAR=2003
DGENRE=Country
TTITLE0=Farol Da Ilha
TTITLE1=Gotas
TTITLE2=Sapo Ria
TTITLE3=Jangada Do Amor
TTITLE4=Fulô De Aço
TTITLE5=Além do Sonho
TTITLE6=Tempo de Moleque
TTITLE7=Bruxos
TTITLE8=Muita Luz
TTITLE9=Sombra da Arueira
TTITLE10=Última Colheita
TTITLE11=Ferroada
EXTD=YEAR: 2003 ID3G: 2
EXTT0=
EXTT1=
EXTT2=
EXTT3=
EXTT4=
EXTT5=
EXTT6=
EXTT7=
EXTT8=
EXTT9=
EXTT10=
EXTT11=
PLAYORDER=
